<!DOCTYPE svg PUBLIC "-//W3C//DTD SVG 1.1//EN" "http://www.w3.org/Graphics/SVG/1.1/DTD/svg11.dtd">
<!-- Uploaded to: SVG Repo, www.svgrepo.com, Transformed by: SVG Repo Mixer Tools -->
<svg height="800px" width="800px" version="1.1" id="Layer_1" xmlns="http://www.w3.org/2000/svg" xmlns:xlink="http://www.w3.org/1999/xlink" viewBox="0 0 511.991 511.991" xml:space="preserve" fill="#000000">
<g id="SVGRepo_bgCarrier" stroke-width="0"/>
<g id="SVGRepo_tracerCarrier" stroke-linecap="round" stroke-linejoin="round"/>
<g id="SVGRepo_iconCarrier"> <g> <g> <path id="SVGCleanerId_0" style="fill:#F8D832;" d="M255.996,406.065L97.099,105.927h317.793L255.996,406.065z"/> </g> <g> <path id="SVGCleanerId_0_1_" style="fill:#F8D832;" d="M255.996,406.065L97.099,105.927h317.793L255.996,406.065z"/> </g> <g> <path id="SVGCleanerId_0_2_" style="fill:#F8D832;" d="M255.996,406.065L97.099,105.927h317.793L255.996,406.065z"/> </g> <path style="fill:#C4A316;" d="M155.746,141.237h200.501L255.992,330.598L155.746,141.237z"/> <g> <path style="fill:#930B1F;" d="M153.467,212.399H70.62c20.436,30.658,51.844,49.752,88.276,52.427h22.325L153.467,212.399z"/> <path style="fill:#930B1F;" d="M358.524,212.399l-27.754,52.427h22.325c36.431-2.675,67.84-21.769,88.276-52.427H358.524z"/> </g> <g> <path style="fill:#6B0F21;" d="M125.426,159.433H35.305l35.31,52.966h82.856L125.426,159.433z"/> <path style="fill:#6B0F21;" d="M386.565,159.433l-28.045,52.966h82.856l35.31-52.966H386.565z"/> </g> <g> <path style="fill:#930B1F;" d="M97.386,106.468H0l35.31,52.966h90.112L97.386,106.468z"/> <path style="fill:#930B1F;" d="M414.605,106.468l-28.036,52.966h90.112l35.31-52.966H414.605z"/> </g> </g> </g>
</svg>